# xmcd
#
# Track frame offsets:
# 150
# 17780
# 35714
# 51456
# 68387
# 87886
# 103089
# 118206
# 135862
# 156057
#
# Disc length: 2346 seconds
#
# Revision: 1
# Processed by: cddbd v1.5.2PL0 Copyright (c) Steve Scherf et al.
# Submitted via: CedeCatalogueitor 2.6.0.6 http://personales.ya.com/cdcatalogueitor
#
DISCID=7f09280a
DTITLE=Camilo Sesto - Amaneciendo
DYEAR=1900
DGENRE=
TTITLE0=Perdoname
TTITLE1=Un Amor No Muere Asi Como Asi
TTITLE2=Mis Suemos
TTITLE3=Amor A Plena Luz
TTITLE4=Donde Estes Con Quien Estes
TTITLE5=Dias De Vino Y Rosas
TTITLE6=Tres Veces No
TTITLE7=Vivir Sin Ti
TTITLE8=Samba
TTITLE9=Insaciable Amante
EXTD=
EXTT0=
EXTT1=
EXTT2=
EXTT3=
EXTT4=
EXTT5=
EXTT6=
EXTT7=
EXTT8=
EXTT9=
PLAYORDER=
